<svg width="50" height="50" xmlns="http://www.w3.org/2000/svg">

 <g>
  <title>background</title>
  <rect fill="none" id="canvas_background" height="402" width="582" y="-1" x="-1"/>
 </g>
 <g>
  <title>Layer 1</title>
  <rect id="svg_1" width="50" height="50" fill="none"/>
  <path id="svg_3" stroke-width="5" stroke-miterlimit="10" stroke-linejoin="round" stroke="#0d8e53" fill="none" d="m25,9.956787c0,-3.59 -2.913,-6.5 -6.5,-6.5c-3.593,0 -6.5,2.91 -6.5,6.5c0,1.007 0.23,1.955 0.642,2.8"/>
  <path id="svg_4" stroke-width="5" stroke-miterlimit="10" stroke-linejoin="round" stroke-linecap="round" stroke="#0d8e53" fill="none" d="m45.375,23.923787l-1.627,0c-0.848,0 -1.25,-0.377 -1.312,-0.762c-0.443,-2.789 -2.255,-6.413 -6.809,-8.003c-0.044,-2.523 0.519,-4.343 1.615,-7.304c-2.547,0.639 -5.361,2.026 -7.027,5.7c-1.877,-0.459 -3.883,-0.707 -5.978,-0.707c-5.485,0 -9.622,1.664 -12.934,4.242c-2.991,2.329 -4.87,6.229 -4.647,11.549c0.168,4.013 2.963,7.075 5.107,8.79c0.309,0.244 0.925,0.635 0.603,1.632c-0.323,0.995 -0.903,2.384 -0.903,2.384c-0.338,0.886 0.111,1.881 0.996,2.218l3.218,1.216c0.886,0.338 1.881,-0.109 2.218,-0.996c0,0 0.428,-1.115 0.776,-2.045c0.661,-1.748 1.065,-0.33 5.566,-0.33c4.677,0 5.149,-0.912 5.638,0.52c0.313,0.935 0.703,1.855 0.703,1.855c0.334,0.887 1.33,1.334 2.219,0.996l3.214,-1.216c0.888,-0.337 1.338,-1.332 0.999,-2.218l-0.516,-1.365c0,0 -0.525,-0.9 0.6,-1.511c2.242,-1.22 3.932,-3.071 5.028,-5.357c0.233,-0.49 0.577,-1.156 1.626,-1.156l1.627,0c0.896,0 1.625,-0.729 1.625,-1.624l0,-4.879c0,-0.897 -0.729,-1.629 -1.625,-1.629z"/>
  <path fill="#0d8e53" id="svg_5" d="m36.48,26.922c-1.059,0 -1.916,-0.857 -1.916,-1.914c0,-1.055 0.857,-1.912 1.916,-1.912c1.056,0 1.91,0.857 1.91,1.912c0.001,1.056 -0.854,1.914 -1.91,1.914z"/>
  <path id="svg_6" stroke-width="3" stroke-miterlimit="10" stroke-linejoin="round" stroke-linecap="round" stroke="#0d8e53" fill="none" d="m6.826,23.096c0,0 -3.826,-0.876 -3.826,-4.327c0,-1.415 0.714,-2.717 1.963,-3.256"/>
 </g>
</svg>