<svg width="24" height="24" xmlns="http://www.w3.org/2000/svg">

 <g>
  <title>background</title>
  <rect fill="none" id="canvas_background" height="402" width="582" y="-1" x="-1"/>
 </g>
 <g>
  <title>Layer 1</title>
  <circle id="svg_1" stroke-width="2" stroke-linejoin="round" stroke-linecap="round" stroke="#0d8e53" r="3" fill="none" cy="12" cx="12"/>
  <path id="svg_2" stroke-width="2" stroke-miterlimit="10" stroke="#0d8e53" fill="none" d="m19.4,15a1.65,1.65 0 0 0 0.33,1.82l0.06,0.06a2,2 0 0 1 0,2.83a2,2 0 0 1 -2.83,0l-0.06,-0.06a1.65,1.65 0 0 0 -1.82,-0.33a1.65,1.65 0 0 0 -1,1.51l0,0.17a2,2 0 0 1 -2,2a2,2 0 0 1 -2,-2l0,-0.09a1.65,1.65 0 0 0 -1.08,-1.51a1.65,1.65 0 0 0 -1.82,0.33l-0.06,0.06a2,2 0 0 1 -2.83,0a2,2 0 0 1 0,-2.83l0.06,-0.06a1.65,1.65 0 0 0 0.33,-1.82a1.65,1.65 0 0 0 -1.51,-1l-0.17,0a2,2 0 0 1 -2,-2a2,2 0 0 1 2,-2l0.09,0a1.65,1.65 0 0 0 1.51,-1.08a1.65,1.65 0 0 0 -0.33,-1.82l-0.06,-0.06a2,2 0 0 1 0,-2.83a2,2 0 0 1 2.83,0l0.06,0.06a1.65,1.65 0 0 0 1.82,0.33l0.08,0a1.65,1.65 0 0 0 1,-1.51l0,-0.17a2,2 0 0 1 2,-2a2,2 0 0 1 2,2l0,0.09a1.65,1.65 0 0 0 1,1.51a1.65,1.65 0 0 0 1.82,-0.33l0.06,-0.06a2,2 0 0 1 2.83,0a2,2 0 0 1 0,2.83l-0.06,0.06a1.65,1.65 0 0 0 -0.33,1.82l0,0.08a1.65,1.65 0 0 0 1.51,1l0.17,0a2,2 0 0 1 2,2a2,2 0 0 1 -2,2l-0.09,0a1.65,1.65 0 0 0 -1.51,1z"/>
 </g>
</svg>